<svg width="222" height="100" viewBox="0 0 222 100" fill="none" xmlns="http://www.w3.org/2000/svg">
<mask id="path-1-inside-1_1_254" fill="white">
<path d="M0 0H222V100H0V0Z"/>
</mask>
<path d="M0 100H1V0H0H-1V100H0Z" fill="#CBCBCB" mask="url(#path-1-inside-1_1_254)"/>
<rect x="33" y="29" width="40" height="40" rx="20" fill="white"/>
<rect x="33" y="29" width="40" height="40" rx="20" stroke="#CBCBCB" stroke-width="2"/>
<path d="M44.5781 47.0992C44.5781 51.3364 48.1956 53.5943 50.8437 55.6154C51.7781 56.3286 52.6781 57 53.5781 57C54.4781 57 55.3781 56.3286 56.3126 55.6154C58.9607 53.5943 62.5781 51.3364 62.5781 47.0992C62.5781 42.862 57.6279 39.857 53.5781 43.9306C49.5283 39.857 44.5781 42.862 44.5781 47.0992Z" fill="#D52B00"/>
<rect x="61" y="26.5" width="16" height="16" rx="8" fill="#D52B00"/>
<rect x="61" y="26.5" width="16" height="16" rx="8" stroke="#D52B00" stroke-width="2"/>
<path d="M69.188 37.608C68.692 37.608 68.264 37.544 67.904 37.416C67.552 37.28 67.256 37.1 67.016 36.876C66.784 36.652 66.6 36.396 66.464 36.108C66.328 35.82 66.224 35.52 66.152 35.208C66.088 34.896 66.044 34.588 66.02 34.284C66.004 33.972 65.996 33.68 65.996 33.408C65.996 33.232 66.004 33.012 66.02 32.748C66.044 32.476 66.092 32.192 66.164 31.896C66.236 31.6 66.34 31.304 66.476 31.008C66.62 30.712 66.808 30.448 67.04 30.216C67.28 29.984 67.572 29.796 67.916 29.652C68.268 29.5 68.692 29.424 69.188 29.424C69.924 29.424 70.508 29.552 70.94 29.808C71.38 30.064 71.712 30.388 71.936 30.78C72.168 31.164 72.316 31.592 72.38 32.064C72.452 32.528 72.488 32.976 72.488 33.408C72.488 33.648 72.476 33.92 72.452 34.224C72.436 34.52 72.388 34.824 72.308 35.136C72.236 35.448 72.128 35.752 71.984 36.048C71.84 36.344 71.644 36.608 71.396 36.84C71.156 37.072 70.856 37.26 70.496 37.404C70.136 37.54 69.7 37.608 69.188 37.608ZM69.188 31.032C68.924 31.032 68.708 31.096 68.54 31.224C68.38 31.352 68.252 31.528 68.156 31.752C68.06 31.968 67.996 32.228 67.964 32.532C67.932 32.836 67.916 33.164 67.916 33.516C67.916 33.852 67.932 34.172 67.964 34.476C67.996 34.78 68.056 35.044 68.144 35.268C68.24 35.492 68.372 35.672 68.54 35.808C68.708 35.936 68.924 36 69.188 36C69.468 36 69.696 35.944 69.872 35.832C70.056 35.712 70.196 35.544 70.292 35.328C70.396 35.112 70.468 34.852 70.508 34.548C70.548 34.236 70.568 33.892 70.568 33.516C70.568 33.124 70.548 32.776 70.508 32.472C70.476 32.16 70.408 31.9 70.304 31.692C70.208 31.476 70.068 31.312 69.884 31.2C69.708 31.088 69.476 31.032 69.188 31.032Z" fill="white"/>
<rect x="91" y="29" width="40" height="40" rx="20" fill="white"/>
<rect x="91" y="29" width="40" height="40" rx="20" stroke="#D52B00" stroke-width="2"/>
<path fill-rule="evenodd" clip-rule="evenodd" d="M106.5 50H115.929C116.619 50 117.203 49.5719 117.294 48.9986L118.5 45.3849C118.5 45.1723 118.294 45 118.04 45H105.5" fill="#D52B00"/>
<path d="M106.5 50H115.929C116.619 50 117.203 49.5719 117.294 48.9986L118.5 45.3849C118.5 45.1723 118.294 45 118.04 45H105.5" stroke="#D52B00" stroke-width="1.5" stroke-linejoin="round"/>
<path d="M118.5 53H107.662C107.611 53 107.566 52.9561 107.554 52.8943L105.001 43.1057C104.99 43.0439 104.945 43 104.893 43H101.5" stroke="#D52B00" stroke-width="1.5" stroke-linecap="round" stroke-linejoin="round"/>
<path fill-rule="evenodd" clip-rule="evenodd" d="M110.5 55C110.5 55.5522 110.052 56 109.5 56C108.948 56 108.5 55.5522 108.5 55C108.5 54.4478 108.948 54 109.5 54C110.052 54 110.5 54.4478 110.5 55Z" fill="#D52B00" stroke="#D52B00" stroke-width="1.5" stroke-linecap="round" stroke-linejoin="round"/>
<path fill-rule="evenodd" clip-rule="evenodd" d="M117.5 55C117.5 55.5522 117.052 56 116.5 56C115.948 56 115.5 55.5522 115.5 55C115.5 54.4478 115.948 54 116.5 54C117.052 54 117.5 54.4478 117.5 55Z" fill="#D52B00" stroke="#D52B00" stroke-width="1.5" stroke-linecap="round" stroke-linejoin="round"/>
<rect x="119" y="26.5" width="16" height="16" rx="8" fill="#D52B00"/>
<rect x="119" y="26.5" width="16" height="16" rx="8" stroke="#D52B00" stroke-width="2"/>
<path d="M127.154 37.608C126.658 37.608 126.23 37.544 125.87 37.416C125.518 37.28 125.222 37.1 124.982 36.876C124.75 36.652 124.566 36.396 124.43 36.108C124.294 35.82 124.19 35.52 124.118 35.208C124.054 34.896 124.01 34.588 123.986 34.284C123.97 33.972 123.962 33.68 123.962 33.408C123.962 33.232 123.97 33.012 123.986 32.748C124.01 32.476 124.058 32.192 124.13 31.896C124.202 31.6 124.306 31.304 124.442 31.008C124.586 30.712 124.774 30.448 125.006 30.216C125.246 29.984 125.538 29.796 125.882 29.652C126.234 29.5 126.658 29.424 127.154 29.424C127.89 29.424 128.474 29.552 128.906 29.808C129.346 30.064 129.678 30.388 129.902 30.78C130.134 31.164 130.282 31.592 130.346 32.064C130.418 32.528 130.454 32.976 130.454 33.408C130.454 33.648 130.442 33.92 130.418 34.224C130.402 34.52 130.354 34.824 130.274 35.136C130.202 35.448 130.094 35.752 129.95 36.048C129.806 36.344 129.61 36.608 129.362 36.84C129.122 37.072 128.822 37.26 128.462 37.404C128.102 37.54 127.666 37.608 127.154 37.608ZM127.154 31.032C126.89 31.032 126.674 31.096 126.506 31.224C126.346 31.352 126.218 31.528 126.122 31.752C126.026 31.968 125.962 32.228 125.93 32.532C125.898 32.836 125.882 33.164 125.882 33.516C125.882 33.852 125.898 34.172 125.93 34.476C125.962 34.78 126.022 35.044 126.11 35.268C126.206 35.492 126.338 35.672 126.506 35.808C126.674 35.936 126.89 36 127.154 36C127.434 36 127.662 35.944 127.838 35.832C128.022 35.712 128.162 35.544 128.258 35.328C128.362 35.112 128.434 34.852 128.474 34.548C128.514 34.236 128.534 33.892 128.534 33.516C128.534 33.124 128.514 32.776 128.474 32.472C128.442 32.16 128.374 31.9 128.27 31.692C128.174 31.476 128.034 31.312 127.85 31.2C127.674 31.088 127.442 31.032 127.154 31.032Z" fill="white"/>
<rect x="149" y="29" width="40" height="40" rx="20" fill="white"/>
<rect x="149" y="29" width="40" height="40" rx="20" stroke="#CBCBCB" stroke-width="2"/>
<path d="M168.998 48.824C171.146 48.824 172.887 47.0726 172.887 44.912C172.887 42.7515 171.146 41 168.998 41C166.85 41 165.109 42.7515 165.109 44.912C165.109 47.0726 166.85 48.824 168.998 48.824Z" fill="#D52B00"/>
<path fill-rule="evenodd" clip-rule="evenodd" d="M176 55.0836C176 51.1946 172.866 48.042 169 48.042C165.134 48.042 162 51.1946 162 55.0836C162 58.9726 176 58.9726 176 55.0836Z" fill="#D52B00"/>
</svg>
